<mxfile host="Electron" modified="2024-10-30T18:05:30.111Z" agent="Mozilla/5.0 (Windows NT 10.0; Win64; x64) AppleWebKit/537.36 (KHTML, like Gecko) draw.io/24.1.0 Chrome/120.0.6099.109 Electron/28.1.0 Safari/537.36" etag="-lyNGe8C4urYzJkdROp9" version="24.1.0" type="device">
  <diagram name="Страница — 1" id="IkMBYMkB2dhY3xT39G_a">
    <mxGraphModel dx="1114" dy="709" grid="1" gridSize="10" guides="1" tooltips="1" connect="1" arrows="1" fold="1" page="1" pageScale="1" pageWidth="1169" pageHeight="827" math="0" shadow="0">
      <root>
        <mxCell id="0" />
        <mxCell id="1" parent="0" />
        <mxCell id="kDCoWVymbzCBjl9wCCQz-1" value="" style="rounded=1;whiteSpace=wrap;html=1;direction=west;" vertex="1" parent="1">
          <mxGeometry x="30" y="240" width="360" height="200" as="geometry" />
        </mxCell>
        <mxCell id="kDCoWVymbzCBjl9wCCQz-3" value="" style="rounded=1;whiteSpace=wrap;html=1;direction=south;" vertex="1" parent="1">
          <mxGeometry x="480" y="160" width="360" height="360" as="geometry" />
        </mxCell>
        <mxCell id="kDCoWVymbzCBjl9wCCQz-4" value="" style="shape=cylinder3;whiteSpace=wrap;html=1;boundedLbl=1;backgroundOutline=1;size=15;" vertex="1" parent="1">
          <mxGeometry x="920" y="160" width="200" height="360" as="geometry" />
        </mxCell>
        <mxCell id="kDCoWVymbzCBjl9wCCQz-5" value="" style="endArrow=classic;startArrow=classic;html=1;rounded=0;entryX=0.5;entryY=1;entryDx=0;entryDy=0;strokeWidth=2;" edge="1" parent="1" target="kDCoWVymbzCBjl9wCCQz-3">
          <mxGeometry width="50" height="50" relative="1" as="geometry">
            <mxPoint x="390" y="340" as="sourcePoint" />
            <mxPoint x="390" y="315" as="targetPoint" />
          </mxGeometry>
        </mxCell>
        <mxCell id="kDCoWVymbzCBjl9wCCQz-6" value="" style="endArrow=classic;startArrow=classic;html=1;rounded=0;exitX=0.5;exitY=0;exitDx=0;exitDy=0;strokeWidth=2;" edge="1" parent="1">
          <mxGeometry width="50" height="50" relative="1" as="geometry">
            <mxPoint x="840" y="339.58000000000004" as="sourcePoint" />
            <mxPoint x="920" y="339.29" as="targetPoint" />
          </mxGeometry>
        </mxCell>
        <mxCell id="kDCoWVymbzCBjl9wCCQz-7" value="&lt;font style=&quot;font-size: 20px;&quot;&gt;&lt;b&gt;1&lt;/b&gt;&lt;/font&gt;" style="text;html=1;align=center;verticalAlign=middle;whiteSpace=wrap;rounded=0;" vertex="1" parent="1">
          <mxGeometry x="410" y="300" width="60" height="50" as="geometry" />
        </mxCell>
        <mxCell id="kDCoWVymbzCBjl9wCCQz-8" value="&lt;font style=&quot;font-size: 20px;&quot;&gt;&lt;b&gt;2&lt;/b&gt;&lt;/font&gt;" style="text;html=1;align=center;verticalAlign=middle;whiteSpace=wrap;rounded=0;" vertex="1" parent="1">
          <mxGeometry x="850" y="300" width="60" height="50" as="geometry" />
        </mxCell>
        <mxCell id="kDCoWVymbzCBjl9wCCQz-9" value="&lt;span style=&quot;font-size: 20px;&quot;&gt;&lt;b&gt;PG&lt;/b&gt;&lt;/span&gt;" style="text;html=1;align=center;verticalAlign=middle;whiteSpace=wrap;rounded=0;" vertex="1" parent="1">
          <mxGeometry x="990" y="315" width="60" height="50" as="geometry" />
        </mxCell>
        <mxCell id="kDCoWVymbzCBjl9wCCQz-11" value="" style="rounded=1;whiteSpace=wrap;html=1;" vertex="1" parent="1">
          <mxGeometry x="40" y="250" width="340" height="180" as="geometry" />
        </mxCell>
        <mxCell id="kDCoWVymbzCBjl9wCCQz-12" value="" style="shape=process;whiteSpace=wrap;html=1;backgroundOutline=1;" vertex="1" parent="1">
          <mxGeometry x="60" y="260" width="300" height="160" as="geometry" />
        </mxCell>
        <mxCell id="kDCoWVymbzCBjl9wCCQz-14" value="Уведомление" style="text;html=1;align=center;verticalAlign=middle;whiteSpace=wrap;rounded=0;strokeColor=default;" vertex="1" parent="1">
          <mxGeometry x="150" y="320" width="120" height="40" as="geometry" />
        </mxCell>
        <mxCell id="kDCoWVymbzCBjl9wCCQz-15" value="" style="whiteSpace=wrap;html=1;aspect=fixed;" vertex="1" parent="1">
          <mxGeometry x="260" y="320" width="10" height="10" as="geometry" />
        </mxCell>
        <mxCell id="kDCoWVymbzCBjl9wCCQz-16" value="" style="endArrow=none;html=1;rounded=0;exitX=0;exitY=1;exitDx=0;exitDy=0;entryX=1;entryY=0;entryDx=0;entryDy=0;" edge="1" parent="1" source="kDCoWVymbzCBjl9wCCQz-15" target="kDCoWVymbzCBjl9wCCQz-15">
          <mxGeometry width="50" height="50" relative="1" as="geometry">
            <mxPoint x="270" y="300" as="sourcePoint" />
            <mxPoint x="320" y="250" as="targetPoint" />
          </mxGeometry>
        </mxCell>
        <mxCell id="kDCoWVymbzCBjl9wCCQz-21" value="" style="endArrow=none;html=1;rounded=0;exitX=1;exitY=1;exitDx=0;exitDy=0;entryX=0;entryY=0;entryDx=0;entryDy=0;" edge="1" parent="1" source="kDCoWVymbzCBjl9wCCQz-15" target="kDCoWVymbzCBjl9wCCQz-15">
          <mxGeometry width="50" height="50" relative="1" as="geometry">
            <mxPoint x="270" y="300" as="sourcePoint" />
            <mxPoint x="320" y="250" as="targetPoint" />
          </mxGeometry>
        </mxCell>
        <mxCell id="kDCoWVymbzCBjl9wCCQz-25" value="Проверить, что фактическое время = Указанному времени срабатывания алгоритма" style="text;html=1;align=center;verticalAlign=middle;whiteSpace=wrap;rounded=0;fontSize=14;" vertex="1" parent="1">
          <mxGeometry x="520" y="300" width="280" height="80" as="geometry" />
        </mxCell>
        <mxCell id="kDCoWVymbzCBjl9wCCQz-27" value="&lt;div style=&quot;font-size: 14px;&quot;&gt;US: Я как пользователь хочу, получить уведомление о степени актуальности задачи,&amp;nbsp;&lt;/div&gt;&lt;div style=&quot;font-size: 14px;&quot;&gt;чтобы я мог эффективнее выставлять приоритеты в работе.&lt;/div&gt;" style="text;html=1;align=center;verticalAlign=middle;whiteSpace=wrap;rounded=0;fontSize=14;fontStyle=0" vertex="1" parent="1">
          <mxGeometry x="40" y="640" width="240" height="120" as="geometry" />
        </mxCell>
        <mxCell id="kDCoWVymbzCBjl9wCCQz-28" value="&lt;b&gt;FROM table smtext for User 533&lt;/b&gt;" style="text;html=1;align=center;verticalAlign=middle;whiteSpace=wrap;rounded=0;fontSize=14;" vertex="1" parent="1">
          <mxGeometry x="920" y="560" width="200" height="30" as="geometry" />
        </mxCell>
        <mxCell id="kDCoWVymbzCBjl9wCCQz-29" value="{&lt;br style=&quot;font-size: 14px;&quot;&gt;smtextid:15,&lt;br style=&quot;font-size: 14px;&quot;&gt;userid:533,&lt;br style=&quot;font-size: 14px;&quot;&gt;clientTypa: mobile&lt;br style=&quot;font-size: 14px;&quot;&gt;}" style="text;html=1;align=center;verticalAlign=middle;whiteSpace=wrap;rounded=0;fontSize=14;fontStyle=1" vertex="1" parent="1">
          <mxGeometry x="180" y="560" width="60" height="30" as="geometry" />
        </mxCell>
        <mxCell id="kDCoWVymbzCBjl9wCCQz-30" value="{&lt;br style=&quot;font-size: 14px;&quot;&gt;smtextid:15,&lt;br style=&quot;font-size: 14px;&quot;&gt;userid:533&lt;br style=&quot;font-size: 14px;&quot;&gt;}" style="text;html=1;align=center;verticalAlign=middle;whiteSpace=wrap;rounded=0;fontSize=14;fontStyle=1" vertex="1" parent="1">
          <mxGeometry x="630" y="560" width="60" height="30" as="geometry" />
        </mxCell>
        <mxCell id="kDCoWVymbzCBjl9wCCQz-31" value="Описание процесса вывода уведомления. В приложении задействован алгоритм вывода созданного сообщения в назначенное время. Как только фактическое время будет равно указанному времени срабатывания алгоритма, то из БД будет извлечена необходимая запись и выведена на экране пользователя." style="text;html=1;align=center;verticalAlign=middle;whiteSpace=wrap;rounded=0;fontSize=14;" vertex="1" parent="1">
          <mxGeometry x="360" y="640" width="640" height="110" as="geometry" />
        </mxCell>
      </root>
    </mxGraphModel>
  </diagram>
</mxfile>
